Coordinates
version=1
nRows=7
nColumns=40
inDegrees=yes

Units are S.I. units (second, meters, Newtons, ...)
Angles are in degrees.

endheader
time	pelvis_tilt	pelvis_list	pelvis_rotation	pelvis_tx	pelvis_ty	pelvis_tz	hip_flexion_r	hip_adduction_r	hip_rotation_r	knee_angle_r	knee_angle_r_beta	ankle_angle_r	subtalar_angle_r	mtp_angle_r	hip_flexion_l	hip_adduction_l	hip_rotation_l	knee_angle_l	knee_angle_l_beta	ankle_angle_l	subtalar_angle_l	mtp_angle_l	lumbar_extension	lumbar_bending	lumbar_rotation	arm_flex_r	arm_add_r	arm_rot_r	elbow_flex_r	pro_sup_r	wrist_flex_r	wrist_dev_r	arm_flex_l	arm_add_l	arm_rot_l	elbow_flex_l	pro_sup_l	wrist_flex_l	wrist_dev_l
      1.41000000	     -3.45243032	     -1.98242204	      8.69031010	     -0.14237914	      0.87738223	     -1.45100435	     27.53693029	     -1.16160494	    -15.68269082	    -26.81790740	     -0.46806078	      0.22116240	     -7.32905371	      6.32206446	     -2.85648514	      5.40035851	      1.66363816	    -38.52718595	     -0.67242625	     -2.78448732	      3.87681829	     -5.84110381	      0.21981386	      1.27970765	    -10.86358813	     -8.23756522	     -7.47064042	    -18.44566512	     16.32412895	     89.95437384	      0.00000000	      0.00000000	      2.37452117	     13.24091611	     21.88437581	     53.80850249	     89.95437384	      0.00000000	      0.00000000
      1.42000000	     -3.84808761	     -2.64208554	      8.58649934	     -0.13164885	      0.87748981	     -1.44915457	     27.35019309	     -0.01589575	    -15.10391317	    -26.75256520	     -0.46692035	      0.37501073	     -8.51145293	      6.58507712	     -1.09260513	      6.34278525	      1.57995673	    -41.25324945	     -0.72000503	     -5.92783945	      4.35414533	     -5.53866945	      0.89537149	      1.96053859	    -10.67936122	     -7.76100274	     -7.49878913	    -19.27117741	     16.12530798	     89.95437384	      0.00000000	      0.00000000	      1.74668264	     12.87828542	     21.86214659	     53.18482709	     89.95437384	      0.00000000	      0.00000000
      1.43000000	     -3.70721811	     -2.75456209	      8.41058548	     -0.12042033	      0.87859370	     -1.44763642	     26.48930489	      0.44949420	    -14.96991119	    -26.87510115	     -0.46905900	      1.13109995	     -8.32769318	      6.41297282	     -0.22878058	      6.67019358	      1.46345573	    -43.38394121	     -0.75719262	     -9.63818485	      5.25673333	     -4.93804039	      0.88313636	      2.12809589	    -10.31310281	     -7.48568452	     -7.56388698	    -19.03984025	     16.27553948	     89.95437384	      0.00000000	      0.00000000	      1.21830927	     12.60069238	     21.65879848	     52.51976812	     89.95437384	      0.00000000	      0.00000000
      1.44000000	     -3.62763292	     -2.93898617	      8.30862589	     -0.10975024	      0.87954844	     -1.44614657	     25.67639333	      0.94744941	    -14.95532650	    -26.87768613	     -0.46910412	      1.86710664	     -8.16198844	      6.26508351	      0.89099361	      6.98392647	      1.00044127	    -45.62435340	     -0.79629519	    -12.91684253	      6.07816711	     -4.36097939	      0.89004324	      2.35294581	    -10.01800316	     -7.12275143	     -7.61351077	    -18.88856868	     16.44263603	     89.95437384	      0.00000000	      0.00000000	      0.76027021	     12.33483463	     21.48050552	     51.75894609	     89.95437384	      0.00000000	      0.00000000
      1.45000000	     -3.65256243	     -3.09811512	      8.26069566	     -0.09955866	      0.88027574	     -1.44481561	     24.97064533	      1.33946788	    -15.05184863	    -26.83502531	     -0.46835955	      2.38819689	     -7.86676251	      6.15584274	      2.29672072	      7.16871869	      0.33406838	    -48.07420802	     -0.83905322	    -15.14910654	      6.70410624	     -3.88255950	      0.94064464	      2.53293565	     -9.73686801	     -6.78361436	     -7.64169019	    -18.85375659	     16.83509865	     89.95437384	      0.00000000	      0.00000000	      0.32813903	     12.03460704	     21.32221804	     51.03439448	     89.95437384	      0.00000000	      0.00000000
      1.46000000	     -3.68698762	     -3.23349715	      8.25366464	     -0.08957615	      0.88089272	     -1.44358148	     24.23765508	      1.65223352	    -15.33834962	    -26.73700102	     -0.46664870	      3.06748801	     -7.47099823	      6.00209044	      3.77843691	      7.25192788	     -0.42387017	    -50.50753576	     -0.88152280	    -16.56622704	      7.07851375	     -3.49344736	      0.98611275	      2.67203299	     -9.45513780	     -6.40227919	     -7.67259266	    -18.77135921	     17.18175746	     89.95437384	      0.00000000	      0.00000000	     -0.03445118	     11.76161856	     21.09513159	     50.20351076	     89.95437384	      0.00000000	      0.00000000
      1.47000000	     -3.72261023	     -3.39718030	      8.28665625	     -0.07988470	      0.88141974	     -1.44245050	     23.47570948	      1.94602404	    -15.74489812	    -26.55087058	     -0.46340011	      3.76575077	     -6.84027971	      5.77479831	      5.42704614	      7.38646149	     -0.99710701	    -53.08197890	     -0.92645531	    -16.82066926	      7.47302797	     -3.20963232	      1.00479142	      2.83774388	     -9.16995140	     -6.05175767	     -7.74032518	    -18.64217848	     17.71879546	     89.95437384	      0.00000000	      0.00000000	     -0.33264906	     11.45199115	     20.88820905	     49.28426852	     89.95437384	      0.00000000	      0.00000000
